<?xml version="1.0" encoding="UTF-8" standalone="no"?><svg xmlns="http://www.w3.org/2000/svg" xmlns:xlink="http://www.w3.org/1999/xlink" contentScriptType="application/ecmascript" contentStyleType="text/css" height="575px" preserveAspectRatio="none" style="width:1085px;height:575px;" version="1.1" viewBox="0 0 1085 575" width="1085px" zoomAndPan="magnify"><defs><filter height="300%" id="fbilejuklkhwe" width="300%" x="-1" y="-1"><feGaussianBlur result="blurOut" stdDeviation="2.0"/><feColorMatrix in="blurOut" result="blurOut2" type="matrix" values="0 0 0 0 0 0 0 0 0 0 0 0 0 0 0 0 0 0 .4 0"/><feOffset dx="4.0" dy="4.0" in="blurOut2" result="blurOut3"/><feBlend in="SourceGraphic" in2="blurOut3" mode="normal"/></filter></defs><g><text fill="#000000" font-family="sans-serif" font-size="14" font-weight="bold" lengthAdjust="spacingAndGlyphs" textLength="95" x="492.5" y="23.5352">Implicit Flow</text><rect fill="#EEEEFF" height="522.5938" style="stroke: #A80036; stroke-width: 1.0;" width="348" x="98" y="34.4883"/><rect fill="#AACCFF" filter="url(#fbilejuklkhwe)" height="240.8633" style="stroke: #A80036; stroke-width: 1.0;" width="10" x="131" y="173.2871"/><rect fill="#AACCFF" filter="url(#fbilejuklkhwe)" height="240.8633" style="stroke: #A80036; stroke-width: 1.0;" width="10" x="396" y="173.2871"/><rect fill="#FFBB44" filter="url(#fbilejuklkhwe)" height="112.9316" style="stroke: #A80036; stroke-width: 1.0;" width="10" x="401" y="266.9082"/><rect fill="#FFBB44" filter="url(#fbilejuklkhwe)" height="29.3105" style="stroke: #A80036; stroke-width: 1.0;" width="10" x="634" y="296.2188"/><rect fill="#11DD11" filter="url(#fbilejuklkhwe)" height="172.2422" style="stroke: #A80036; stroke-width: 1.0;" width="10" x="934" y="207.5977"/><rect fill="#FFBB44" filter="url(#fbilejuklkhwe)" height="112.9316" style="stroke: #A80036; stroke-width: 1.0;" width="10" x="939" y="266.9082"/><line style="stroke: #A80036; stroke-width: 1.0; stroke-dasharray: 5.0,5.0;" x1="136" x2="136" y1="116.9766" y2="563.082"/><line style="stroke: #A80036; stroke-width: 1.0; stroke-dasharray: 5.0,5.0;" x1="401" x2="401" y1="116.9766" y2="563.082"/><line style="stroke: #A80036; stroke-width: 1.0; stroke-dasharray: 5.0,5.0;" x1="639" x2="639" y1="116.9766" y2="563.082"/><line style="stroke: #A80036; stroke-width: 1.0; stroke-dasharray: 5.0,5.0;" x1="939" x2="939" y1="116.9766" y2="563.082"/><rect fill="#AACCFF" filter="url(#fbilejuklkhwe)" height="30.4883" style="stroke: #A80036; stroke-width: 1.5;" width="54" x="107" y="81.4883"/><text fill="#000000" font-family="sans-serif" font-size="14" lengthAdjust="spacingAndGlyphs" textLength="40" x="114" y="102.0234">Client</text><text fill="#000000" font-family="sans-serif" font-size="14" lengthAdjust="spacingAndGlyphs" textLength="76" x="360" y="114.0234">User Agent</text><ellipse cx="401" cy="84.4883" fill="#FF8888" filter="url(#fbilejuklkhwe)" rx="12" ry="12" style="stroke: #A80036; stroke-width: 2.0;"/><line style="stroke: #A80036; stroke-width: 2.0;" x1="389" x2="413" y1="98.4883" y2="98.4883"/><text fill="#000000" font-family="sans-serif" font-size="14" lengthAdjust="spacingAndGlyphs" textLength="112" x="580" y="114.0234">Resource Owner</text><ellipse cx="639" cy="43.4883" fill="#FF8888" filter="url(#fbilejuklkhwe)" rx="8" ry="8" style="stroke: #A80036; stroke-width: 2.0;"/><path d="M639,51.4883 L639,78.4883 M626,59.4883 L652,59.4883 M639,78.4883 L626,93.4883 M639,78.4883 L652,93.4883 " fill="none" filter="url(#fbilejuklkhwe)" style="stroke: #A80036; stroke-width: 2.0;"/><rect fill="#FFDDDD" filter="url(#fbilejuklkhwe)" height="30.4883" style="stroke: #A80036; stroke-width: 1.5;" width="156" x="859" y="81.4883"/><text fill="#000000" font-family="sans-serif" font-size="14" lengthAdjust="spacingAndGlyphs" textLength="142" x="866" y="102.0234">Authorization Server</text><rect fill="#AACCFF" filter="url(#fbilejuklkhwe)" height="240.8633" style="stroke: #A80036; stroke-width: 1.0;" width="10" x="131" y="173.2871"/><rect fill="#AACCFF" filter="url(#fbilejuklkhwe)" height="240.8633" style="stroke: #A80036; stroke-width: 1.0;" width="10" x="396" y="173.2871"/><rect fill="#FFBB44" filter="url(#fbilejuklkhwe)" height="112.9316" style="stroke: #A80036; stroke-width: 1.0;" width="10" x="401" y="266.9082"/><rect fill="#FFBB44" filter="url(#fbilejuklkhwe)" height="29.3105" style="stroke: #A80036; stroke-width: 1.0;" width="10" x="634" y="296.2188"/><rect fill="#11DD11" filter="url(#fbilejuklkhwe)" height="172.2422" style="stroke: #A80036; stroke-width: 1.0;" width="10" x="934" y="207.5977"/><rect fill="#FFBB44" filter="url(#fbilejuklkhwe)" height="112.9316" style="stroke: #A80036; stroke-width: 1.0;" width="10" x="939" y="266.9082"/><polygon fill="#A80036" points="384,169.2871,394,173.2871,384,177.2871,388,173.2871" style="stroke: #A80036; stroke-width: 1.0;"/><line style="stroke: #A80036; stroke-width: 1.0; stroke-dasharray: 2.0,2.0;" x1="141" x2="390" y1="173.2871" y2="173.2871"/><text fill="#000000" font-family="sans-serif" font-size="13" font-weight="bold" lengthAdjust="spacingAndGlyphs" textLength="20" x="148" y="168.5449">(A)</text><text fill="#000000" font-family="sans-serif" font-size="13" lengthAdjust="spacingAndGlyphs" textLength="141" x="172" y="168.5449">Directs or Redirects to</text><text fill="#000000" font-family="sans-serif" font-size="13" font-weight="bold" lengthAdjust="spacingAndGlyphs" textLength="72" x="317" y="168.5449">/authorize</text><polygon fill="#A80036" points="922,203.5977,932,207.5977,922,211.5977,926,207.5977" style="stroke: #A80036; stroke-width: 1.0;"/><line style="stroke: #A80036; stroke-width: 1.0;" x1="406" x2="928" y1="207.5977" y2="207.5977"/><text fill="#000000" font-family="sans-serif" font-size="13" font-weight="bold" lengthAdjust="spacingAndGlyphs" textLength="20" x="425" y="202.8555">(A)</text><text fill="#000000" font-family="sans-serif" font-size="13" font-weight="bold" lengthAdjust="spacingAndGlyphs" textLength="72" x="449" y="202.8555">/authorize</text><text fill="#000000" font-family="sans-serif" font-size="13" lengthAdjust="spacingAndGlyphs" textLength="250" x="525" y="202.8555">with [Client Identifier &amp; Redirection URI]</text><path d="M949,186.2871 L949,211.2871 L1073,211.2871 L1073,196.2871 L1063,186.2871 L949,186.2871 " fill="#EEEEFF" filter="url(#fbilejuklkhwe)" style="stroke: #A80036; stroke-width: 1.0;"/><path d="M1063,186.2871 L1063,196.2871 L1073,196.2871 L1063,186.2871 " fill="#EEEEFF" style="stroke: #A80036; stroke-width: 1.0;"/><text fill="#000000" font-family="sans-serif" font-size="13" font-weight="bold" lengthAdjust="spacingAndGlyphs" textLength="103" x="955" y="203.8555">GET /authorize</text><polygon fill="#A80036" points="422,262.9082,412,266.9082,422,270.9082,418,266.9082" style="stroke: #A80036; stroke-width: 1.0;"/><line style="stroke: #A80036; stroke-width: 1.0; stroke-dasharray: 2.0,2.0;" x1="416" x2="938" y1="266.9082" y2="266.9082"/><text fill="#000000" font-family="sans-serif" font-size="13" font-weight="bold" lengthAdjust="spacingAndGlyphs" textLength="18" x="428" y="262.166">(B)</text><text fill="#000000" font-family="sans-serif" font-size="13" lengthAdjust="spacingAndGlyphs" textLength="83" x="450" y="262.166">Initiate Login</text><polygon fill="#A80036" points="622,292.2188,632,296.2188,622,300.2188,626,296.2188" style="stroke: #A80036; stroke-width: 1.0;"/><line style="stroke: #A80036; stroke-width: 1.0;" x1="411" x2="628" y1="296.2188" y2="296.2188"/><text fill="#000000" font-family="sans-serif" font-size="13" font-weight="bold" lengthAdjust="spacingAndGlyphs" textLength="18" x="426" y="291.4766">(B)</text><text fill="#000000" font-family="sans-serif" font-size="13" lengthAdjust="spacingAndGlyphs" textLength="68" x="448" y="291.4766">Login Page</text><polygon fill="#A80036" points="927,321.5293,937,325.5293,927,329.5293,931,325.5293" style="stroke: #A80036; stroke-width: 1.0;"/><line style="stroke: #A80036; stroke-width: 1.0;" x1="639" x2="933" y1="325.5293" y2="325.5293"/><text fill="#000000" font-family="sans-serif" font-size="13" font-weight="bold" lengthAdjust="spacingAndGlyphs" textLength="18" x="650" y="320.7871">(B)</text><text fill="#000000" font-family="sans-serif" font-size="13" lengthAdjust="spacingAndGlyphs" textLength="240" x="672" y="320.7871">Authenticates and approves the Client</text><polygon fill="#A80036" points="417,375.8398,407,379.8398,417,383.8398,413,379.8398" style="stroke: #A80036; stroke-width: 1.0;"/><line style="stroke: #A80036; stroke-width: 1.0; stroke-dasharray: 2.0,2.0;" x1="411" x2="938" y1="379.8398" y2="379.8398"/><text fill="#000000" font-family="sans-serif" font-size="13" font-weight="bold" lengthAdjust="spacingAndGlyphs" textLength="19" x="427" y="375.0977">(C)</text><text fill="#000000" font-family="sans-serif" font-size="13" lengthAdjust="spacingAndGlyphs" textLength="265" x="450" y="375.0977">Redirects with [Access Token] in fragment</text><polygon fill="#A80036" points="147,410.1504,137,414.1504,147,418.1504,143,414.1504" style="stroke: #A80036; stroke-width: 1.0;"/><line style="stroke: #A80036; stroke-width: 1.0;" x1="141" x2="400" y1="414.1504" y2="414.1504"/><text fill="#000000" font-family="sans-serif" font-size="13" font-weight="bold" lengthAdjust="spacingAndGlyphs" textLength="20" x="153" y="409.4082">(D)</text><text fill="#000000" font-family="sans-serif" font-size="13" lengthAdjust="spacingAndGlyphs" textLength="0" x="177" y="409.4082"/><text fill="#000000" font-family="sans-serif" font-size="13" font-weight="bold" lengthAdjust="spacingAndGlyphs" textLength="62" x="177" y="409.4082">/callback</text><text fill="#000000" font-family="sans-serif" font-size="13" lengthAdjust="spacingAndGlyphs" textLength="109" x="243" y="409.4082">without fragment</text><path d="M8,392.8398 L8,417.8398 L122,417.8398 L122,402.8398 L112,392.8398 L8,392.8398 " fill="#EEEEFF" filter="url(#fbilejuklkhwe)" style="stroke: #A80036; stroke-width: 1.0;"/><path d="M112,392.8398 L112,402.8398 L122,402.8398 L112,392.8398 " fill="#EEEEFF" style="stroke: #A80036; stroke-width: 1.0;"/><text fill="#000000" font-family="sans-serif" font-size="13" font-weight="bold" lengthAdjust="spacingAndGlyphs" textLength="93" x="14" y="410.4082">GET /callback</text><polygon fill="#A80036" points="389,469.4609,399,473.4609,389,477.4609,393,473.4609" style="stroke: #A80036; stroke-width: 1.0;"/><line style="stroke: #A80036; stroke-width: 1.0;" x1="136" x2="395" y1="473.4609" y2="473.4609"/><text fill="#000000" font-family="sans-serif" font-size="13" font-weight="bold" lengthAdjust="spacingAndGlyphs" textLength="18" x="143" y="468.7188">(E)</text><text fill="#000000" font-family="sans-serif" font-size="13" lengthAdjust="spacingAndGlyphs" textLength="135" x="165" y="468.7188">Load page with script</text><line style="stroke: #A80036; stroke-width: 1.0;" x1="401" x2="443" y1="502.7715" y2="502.7715"/><line style="stroke: #A80036; stroke-width: 1.0;" x1="443" x2="443" y1="502.7715" y2="515.7715"/><line style="stroke: #A80036; stroke-width: 1.0;" x1="402" x2="443" y1="515.7715" y2="515.7715"/><polygon fill="#A80036" points="412,511.7715,402,515.7715,412,519.7715,408,515.7715" style="stroke: #A80036; stroke-width: 1.0;"/><text fill="#000000" font-family="sans-serif" font-size="13" font-weight="bold" lengthAdjust="spacingAndGlyphs" textLength="17" x="408" y="498.0293">(F)</text><text fill="#000000" font-family="sans-serif" font-size="13" lengthAdjust="spacingAndGlyphs" textLength="203" x="429" y="498.0293">Script extracting [Access Token]</text><polygon fill="#A80036" points="147,541.082,137,545.082,147,549.082,143,545.082" style="stroke: #A80036; stroke-width: 1.0;"/><line style="stroke: #A80036; stroke-width: 1.0; stroke-dasharray: 2.0,2.0;" x1="141" x2="400" y1="545.082" y2="545.082"/><text fill="#000000" font-family="sans-serif" font-size="13" font-weight="bold" lengthAdjust="spacingAndGlyphs" textLength="20" x="153" y="540.3398">(G)</text><text fill="#000000" font-family="sans-serif" font-size="13" lengthAdjust="spacingAndGlyphs" textLength="148" x="177" y="540.3398">Capture [Access Token]</text><!--
@startuml

title Implicit Flow
hide footbox
skinparam {
  ParticipantPadding 5
  BoxPadding 5
}

box #EEF
participant "Client"                as CL       #ACF
entity      "User Agent"            as UA       #F88
end box
actor       "Resource Owner"        as RO       #F88
participant "Authorization Server"  as AS       #FDD

|||
CL- ->UA: <b>(A)</b> Directs or Redirects to <b>/authorize</b>
activate CL #ACF
activate UA #ACF
UA->AS:   <b>   (A) <b>/authorize</b> with [Client Identifier & Redirection URI]
note right #EEF: <b>GET /authorize</b>

activate AS #1D1
|||
UA<- -AS: <b>(B)</b> Initiate Login
activate UA #FB4
activate AS #FB4
UA->RO: <b>  (B)</b> Login Page
activate RO #FB4
RO->AS: <b> (B)</b> Authenticates and approves the Client
deactivate RO

|||
UA<- -AS: <b> (C)</b> Redirects with [Access Token] in fragment
deactivate AS
deactivate UA
deactivate AS
CL<-UA: <b>(D)</b> <b>/callback</b> without fragment
note left #EEF: <b>GET /callback</b>
deactivate UA
deactivate CL

|||
CL->UA: <b>(E)</b> Load page with script
UA->UA: <b>(F)</b> Script extracting [Access Token]
CL<- -UA: <b>(G)</b> Capture [Access Token]

@enduml

PlantUML version 1.2019.06(Fri May 24 13:10:25 EDT 2019)
(GPL source distribution)
Java Runtime: Java(TM) SE Runtime Environment
JVM: Java HotSpot(TM) 64-Bit Server VM
Java Version: 1.8.0_202-b08
Operating System: Mac OS X
OS Version: 10.14.5
Default Encoding: UTF-8
Language: en
Country: CA
--></g></svg>